<svg width="22" height="19" viewBox="0 0 22 19" fill="none" xmlns="http://www.w3.org/2000/svg">
    <path d="M0 1.9C0 0.850659 0.879441 0 1.96429 0H20.0357C21.1206 0 22 0.850659 22 1.9C22 2.94934 21.1206 3.8 20.0357 3.8H1.96429C0.879441 3.8 0 2.94934 0 1.9Z" fill="#97B64E"/>
    <path d="M0 9.5C0 8.45066 0.879441 7.6 1.96429 7.6H20.0357C21.1206 7.6 22 8.45066 22 9.5C22 10.5493 21.1206 11.4 20.0357 11.4H1.96429C0.879441 11.4 0 10.5493 0 9.5Z" fill="#97B64E"/>
    <path d="M0 17.1C0 16.0507 0.879441 15.2 1.96429 15.2H20.0357C21.1206 15.2 22 16.0507 22 17.1C22 18.1493 21.1206 19 20.0357 19H1.96429C0.879441 19 0 18.1493 0 17.1Z" fill="#97B64E"/>
</svg>
