<svg width="178" height="51" viewBox="0 0 178 51" fill="none" xmlns="http://www.w3.org/2000/svg">
    <path d="M48.1287 16.5813C46.632 15.7605 46.5162 17.6145 45.3574 17.5501C44.453 17.225 46.2522 16.5233 46.3005 16.0534C46.6449 15.4354 46.2136 14.634 45.5892 14.4247C43.1816 14.2381 44.3564 17.1284 43.2588 16.6585C43.1526 16.0534 43.629 15.4193 43.2814 14.8367C42.7503 13.6844 40.7579 14.5084 41.3952 15.738C41.54 16.2272 42.0904 16.7036 42.0325 17.2154C41.392 18.0104 40.0723 15.0363 39.2322 17.4085C38.817 16.4847 38.0896 15.7766 37.5521 14.9333C37.5231 14.4666 38.9876 14.3539 39.3706 14.0771C40.3459 13.6458 41.2182 13.0504 41.9005 12.2296C43.3876 10.4561 43.2524 8.00344 44.0281 5.93059C46.0945 0.159468 42.8372 -1.53679 37.9802 1.44695C36.0457 2.18403 34.034 2.94364 32.7948 4.71393C32.003 5.75678 31.4687 6.99598 31.2145 8.28346C31.0761 8.80167 31.1147 9.4261 30.6512 9.7866C29.9109 9.36173 29.5053 9.09136 28.6073 9.48082C27.6546 9.68682 26.38 10.9904 26.1096 9.36817C26.1354 9.04308 25.6976 7.53673 26.219 7.65904C29.1963 8.75017 29.1609 5.01327 26.9432 5.9145C26.3671 6.18487 25.5045 6.89299 25.1537 5.97888C25.4337 5.23214 26.2899 4.82658 26.2416 3.98328C26.351 3.09492 25.2309 2.44153 24.5389 3.04342C24.2009 3.28482 24.4327 3.71613 24.3297 4.038C24.1977 4.41459 24.0142 4.77508 23.8372 5.1742C23.3769 4.71393 23.5121 4.02513 23.3801 3.44576C23.039 2.17115 21.259 2.37071 21.42 3.7805C21.5455 4.63024 22.5175 5.10983 22.4403 6.04003C22.4371 6.172 22.3984 6.23637 22.2504 6.19131C21.7837 5.99497 21.1625 6.08509 20.9017 5.57332C20.6282 5.09051 20.0745 4.94889 19.5885 5.21604C18.9222 5.59907 18.8128 6.64515 19.6014 6.96702C20.3964 7.11508 21.1496 7.23739 21.9092 7.53673C22.392 7.72341 21.5584 8.38968 21.3009 8.46371C18.4684 9.01411 21.1303 12.3261 22.7074 9.21689C22.8716 9.0463 23.0551 9.0817 23.1291 9.30057C23.7825 10.7393 23.8211 13.9162 26.0645 13.4366C26.6471 13.3658 27.2104 13.0471 27.793 13.1115C26.2126 15.3517 24.3779 17.4664 23.0905 19.9126C22.1345 22.3749 21.362 25.1752 21.9317 27.8081C22.0573 27.9916 22.5304 30.9077 22.0927 30.5697C12.8775 26.6751 17.5286 33.1222 13.6082 33.8786C13.238 34.0073 13.1672 33.9977 13.1479 33.6307C13.0739 31.8669 10.1803 32.3851 11.1427 33.9944C11.413 34.4611 12.6876 34.96 12.4237 35.43C12.0278 36.7561 10.4088 35.4718 10.1835 36.9749C9.83586 37.8536 10.8916 38.594 11.6512 38.0725C11.9956 37.8955 12.3561 37.3483 12.7263 37.2775C13.1447 37.5543 13.5921 37.9051 13.1189 38.3686C12.4012 39.4083 14.1682 40.7183 14.651 39.4533C14.7218 38.8611 14.5738 38.2528 14.6156 37.6573C14.9472 37.6863 15.0083 38.0049 14.9633 38.2753C15.0341 40.1904 18.3525 39.434 15.9804 37.0844C15.7261 36.711 16.1703 36.3119 16.5501 36.5404C18.4684 38.4716 19.7849 34.8249 16.8237 35.3946C15.5941 35.3109 17.1616 33.3893 17.7732 33.2509C18.3397 32.9966 18.5939 33.5631 18.9158 33.8914C19.434 34.3871 19.9329 34.9053 20.493 35.3495C20.9307 35.8677 22.0991 35.9611 22.186 36.666C22.0315 37.9953 22.1731 39.4083 21.5809 40.6346C20.4415 44.3876 17.2743 47.5709 13.1704 47.4357C4.44776 47.0881 1.26447 39.6304 1.9243 31.8379C2.00799 30.3026 2.03696 28.7608 2.20755 27.2319C2.3202 26.7781 2.46504 26.305 2.22042 25.8479C1.24837 24.7246 1.03594 27.0099 0.833162 27.6085C-0.444661 33.1093 -0.509035 39.389 2.48114 44.3586C5.21703 48.5462 10.2189 51.4012 15.2819 50.9409C19.9973 51.1115 23.4349 47.2265 25.8167 43.5926C27.2973 41.4489 26.8499 38.3493 29.7532 37.3676C30.4709 37.1455 31.6715 36.4471 32.3313 36.8237C32.5888 38.536 31.5041 38.9963 30.0461 39.2795C29.2317 39.5081 29.1255 40.3063 29.5214 40.8599C30.0171 41.6936 31.7005 41.5616 31.9451 40.5831C32.0095 40.3192 32.6017 39.7817 32.8882 40.0037C34.1853 40.876 32.1994 42.2826 33.503 43.1001C34.4557 43.9306 36.403 43.0776 35.5726 41.7386C35.4535 41.4715 35.1799 41.2301 35.1992 40.9243C35.2314 40.9114 35.2636 40.8985 35.299 40.8857C35.74 41.2783 35.7174 41.935 36.1713 42.2665C36.6605 42.6527 37.2495 42.5079 37.684 42.0895C38.6593 40.8664 36.9727 40.4447 36.3418 39.7366C36.8021 39.5145 37.301 39.7817 37.6937 40.0005C39.0488 40.4029 39.5477 38.4395 38.2023 37.9148C38.0767 37.8536 38.0091 37.8054 38.0799 37.667C38.4018 37.0297 37.6454 36.2121 37.0403 36.2636C36.5511 36.299 36.3097 36.6466 35.8365 36.6949C39.3063 31.7059 36.8568 30.5923 31.7906 31.5386C31.1919 31.5579 30.4903 32.06 29.9366 31.7735C29.4764 30.8176 30.1362 29.7779 30.6415 28.9765C32.6918 25.9187 35.7721 23.2955 35.8751 19.3783C37.198 20.7044 37.2785 22.9189 38.5434 24.3416C40.8255 26.5689 42.7792 22.6035 43.7867 20.9233C44.5302 19.4749 45.454 20.7334 46.2039 21.4061C46.941 21.9307 48.1802 20.9104 47.7586 20.1154C47.2725 19.2946 46.3134 19.5103 45.6439 18.9374C46.3488 18.815 47.0408 19.0178 47.7328 18.8505C48.6856 18.5704 49.0589 17.0834 48.1287 16.5813ZM39.3513 17.6917C39.6217 18.7314 40.906 18.2936 41.5046 18.7925C41.7782 19.7549 40.951 20.5853 40.4521 21.3449C39.744 20.8074 39.0005 18.3741 39.3513 17.6917ZM36.4963 38.2978C36.3515 38.2978 36.2067 38.2978 36.0618 38.2978C36.0618 38.2624 36.0586 38.227 36.0586 38.1916C36.2034 38.1852 36.3483 38.1755 36.4931 38.1691C36.4931 38.2141 36.4963 38.256 36.4963 38.2978Z" fill="#97B64E"/>
    <path d="M68.915 7.16588C68.915 8.07677 68.2069 8.7527 67.2606 8.7527H58.4896V26.359C58.4896 27.4051 57.7461 28.1808 56.7032 28.1808C55.6926 28.1808 54.9169 27.4051 54.9169 26.359V7.40085C54.9169 6.32258 55.7248 5.54688 56.7708 5.54688H67.2606C68.2069 5.54688 68.915 6.25499 68.915 7.16588Z" fill="#AB4986"/>
    <path d="M72.3236 26.0886V7.26566C72.3236 6.28718 73.0671 5.54688 74.0424 5.54688H85.4784C86.4215 5.54688 87.1296 6.25499 87.1296 7.16588C87.1296 8.07677 86.4215 8.7527 85.4784 8.7527H75.8996V14.453H82.8133C83.7242 14.453 84.4002 15.1289 84.4002 16.0044C84.4002 16.8799 83.7242 17.5558 82.8133 17.5558H75.8996V24.6048H85.884C86.8271 24.6048 87.5352 25.2807 87.5352 26.1884C87.5352 27.0993 86.8271 27.8074 85.884 27.8074H74.0456C73.0639 27.8074 72.3236 27.0671 72.3236 26.0886Z" fill="#AB4986"/>
    <path d="M95.0927 6.99561V26.3561C95.0927 27.4022 94.3169 28.1779 93.3063 28.1779C92.2956 28.1779 91.5199 27.4022 91.5199 26.3561V6.99561C91.5199 5.94953 92.2634 5.17383 93.3063 5.17383C94.3169 5.17705 95.0927 5.95275 95.0927 6.99561ZM109.091 26.5267C109.091 27.4376 108.315 28.1811 107.436 28.1811C106.896 28.1811 106.426 27.9461 105.985 27.473L96.4413 17.1506C96.1033 16.7805 95.9005 16.3749 95.9005 15.9372C95.9005 15.5316 96.1033 15.1293 96.4413 14.7559L105.312 5.81757C105.75 5.37982 106.12 5.17705 106.628 5.17705C107.539 5.17705 108.247 5.88516 108.247 6.79605C108.247 7.2692 108.08 7.63935 107.639 8.1125L99.8467 15.9372L108.515 25.3486C108.92 25.751 109.091 26.0889 109.091 26.5267Z" fill="#AB4986"/>
    <path d="M116.848 6.99561V26.3561C116.848 27.4022 116.072 28.1779 115.062 28.1779C114.051 28.1779 113.275 27.4022 113.275 26.3561V6.99561C113.275 5.94953 114.019 5.17383 115.062 5.17383C116.072 5.17705 116.848 5.95275 116.848 6.99561ZM130.849 26.5267C130.849 27.4376 130.074 28.1811 129.195 28.1811C128.654 28.1811 128.184 27.9461 127.743 27.473L118.2 17.1506C117.862 16.7805 117.659 16.3749 117.659 15.9372C117.659 15.5316 117.862 15.1293 118.2 14.7559L127.07 5.81757C127.508 5.37982 127.878 5.17705 128.387 5.17705C129.298 5.17705 130.006 5.88516 130.006 6.79605C130.006 7.2692 129.839 7.63935 129.398 8.1125L121.605 15.9372L130.273 25.3486C130.679 25.751 130.849 26.0889 130.849 26.5267Z" fill="#AB4986"/>
    <path d="M155.372 16.6772C155.372 23.121 150.213 28.1808 143.669 28.1808C137.126 28.1808 131.998 23.121 131.998 16.6772C131.998 10.2333 137.122 5.17676 143.666 5.17676C150.21 5.17676 155.372 10.2687 155.372 16.6772ZM135.706 16.645C135.706 21.4344 139.079 24.9074 143.701 24.9074C148.288 24.9074 151.697 21.399 151.697 16.645C151.697 11.9553 148.291 8.44696 143.701 8.44696C139.079 8.44696 135.706 11.9199 135.706 16.645Z" fill="#AB4986"/>
    <path d="M159.656 26.3593V6.99561C159.656 5.94953 160.4 5.17383 161.443 5.17383C162.489 5.17383 163.229 5.94953 163.229 6.99561V14.4179H174.427V6.99561C174.427 5.94953 175.171 5.17383 176.213 5.17383C177.26 5.17383 178 5.94953 178 6.99561V26.3561C178 27.4022 177.224 28.1779 176.213 28.1779C175.203 28.1779 174.427 27.4022 174.427 26.3561V17.6238H163.229V26.3593C163.229 27.4054 162.454 28.1811 161.443 28.1811C160.432 28.1811 159.656 27.4054 159.656 26.3593Z" fill="#AB4986"/>
    <path d="M60.6334 38.3924V44.5723H61.1355C61.6537 44.5723 62.0689 44.9714 62.0689 45.5057V47.8425C62.0689 48.38 61.6891 48.7791 61.1516 48.7791C60.6334 48.7791 60.2343 48.38 60.2343 47.8425V46.1463H54.4696C53.9321 46.1463 53.533 45.7471 53.533 45.2128V38.3924C53.533 37.8549 53.9128 37.459 54.4503 37.459C54.9524 37.459 55.3515 37.8581 55.3515 38.3924V44.5723H58.8148V38.3924C58.8148 37.8549 59.1946 37.459 59.7322 37.459C60.2536 37.459 60.6334 37.8581 60.6334 38.3924Z" fill="#AB4986"/>
    <path d="M71.5931 41.4038V41.4908C71.5931 42.1152 71.194 42.495 70.5534 42.495H65.1203C65.3617 43.8629 66.3852 44.7288 67.8916 44.7288C68.619 44.7288 69.311 44.5035 69.884 44.0722C70.0385 43.9692 70.1962 43.8983 70.3507 43.8983C70.782 43.8983 71.1135 44.2266 71.1135 44.6612C71.1135 44.9734 70.9912 45.1794 70.6629 45.424C69.8486 46.0291 68.8958 46.3413 67.8401 46.3413C65.2072 46.3413 63.2695 44.4552 63.2695 41.9092C63.2695 39.3986 65.175 37.4609 67.6502 37.4609C69.9161 37.4577 71.5931 39.1186 71.5931 41.4038ZM65.1525 41.0755H69.7745C69.7391 39.846 68.8733 38.9995 67.5922 38.9995C66.3659 38.9995 65.4325 39.8299 65.1525 41.0755Z" fill="#AB4986"/>
    <path d="M81.204 38.3914V45.4211C81.204 45.9393 80.8049 46.3384 80.2867 46.3384C79.7846 46.3384 79.3855 45.9393 79.3855 45.4211V42.4792H75.5938V45.4211C75.5938 45.9393 75.214 46.3384 74.6926 46.3384C74.1551 46.3384 73.7753 45.9393 73.7753 45.4211V38.3914C73.7753 37.8539 74.1551 37.458 74.6926 37.458C75.1947 37.458 75.5938 37.8571 75.5938 38.3914V40.902H79.3855V38.3914C79.3855 37.8539 79.7653 37.458 80.2867 37.458C80.8049 37.458 81.204 37.8571 81.204 38.3914Z" fill="#AB4986"/>
    <path d="M85.7393 45.4052V39.2253H83.5763C83.1257 39.2253 82.7813 38.8777 82.7813 38.4303C82.7813 37.9829 83.1289 37.6514 83.5763 37.6514H89.7047C90.1714 37.6514 90.4997 37.9797 90.4997 38.4303C90.4997 38.8809 90.1714 39.2253 89.7047 39.2253H87.5418V45.4052C87.5418 45.9427 87.162 46.3419 86.6405 46.3419C86.1384 46.3386 85.7393 45.9427 85.7393 45.4052Z" fill="#AB4986"/>
    <path d="M100.925 41.8899C100.925 44.452 99.158 46.3382 96.7536 46.3382C95.5595 46.3382 94.5553 45.8715 93.9148 45.1086V48.5365C93.9148 49.0741 93.535 49.47 93.0135 49.47C92.4953 49.47 92.0962 49.0709 92.0962 48.5365V38.3558C92.0962 37.8376 92.476 37.4385 93.0135 37.4385C93.5156 37.4385 93.8955 37.8376 93.8955 38.3558V38.7034C94.5199 37.9245 95.5402 37.4578 96.7536 37.4578C99.158 37.4578 100.925 39.3439 100.925 41.8899ZM99.055 41.906C99.055 40.2967 97.9639 39.1186 96.4575 39.1186C94.9351 39.1186 93.8955 40.2452 93.8955 41.8899C93.8955 43.5508 94.9158 44.6773 96.4575 44.6773C97.9639 44.6773 99.055 43.4993 99.055 41.906Z" fill="#AB4986"/>
    <path d="M109.789 38.3914V45.4018C109.789 45.9393 109.41 46.3384 108.888 46.3384C108.351 46.3384 107.971 45.9393 107.971 45.4018V38.3914C107.971 37.8539 108.351 37.458 108.888 37.458C109.41 37.458 109.789 37.8571 109.789 38.3914ZM115.313 45.4919C115.313 45.9586 114.933 46.3416 114.447 46.3416C114.186 46.3416 113.961 46.2547 113.806 46.0648L110.481 42.2024C110.308 41.9771 110.221 41.7711 110.221 41.5618C110.221 41.3365 110.308 41.1112 110.514 40.8859L113.526 37.7348C113.681 37.5449 113.906 37.458 114.167 37.458C114.653 37.4741 115.017 37.8378 115.017 38.3045C115.017 38.5459 114.93 38.7712 114.756 38.945L112.21 41.5779L115.084 44.8835C115.226 45.0767 115.313 45.2666 115.313 45.4919Z" fill="#AB4986"/>
    <path d="M126.169 41.8899C126.169 44.452 124.402 46.3382 121.998 46.3382C120.804 46.3382 119.8 45.8715 119.159 45.1086V48.5365C119.159 49.0741 118.779 49.47 118.258 49.47C117.74 49.47 117.34 49.0709 117.34 48.5365V38.3558C117.34 37.8376 117.72 37.4385 118.258 37.4385C118.76 37.4385 119.14 37.8376 119.14 38.3558V38.7034C119.764 37.9245 120.784 37.4578 121.998 37.4578C124.402 37.4578 126.169 39.3439 126.169 41.8899ZM124.299 41.906C124.299 40.2967 123.208 39.1186 121.702 39.1186C120.179 39.1186 119.14 40.2452 119.14 41.8899C119.14 43.5508 120.16 44.6773 121.702 44.6773C123.208 44.6773 124.299 43.4993 124.299 41.906Z" fill="#AB4986"/>
    <path d="M135.014 41.0082V45.4243C135.014 45.9618 134.634 46.3416 134.113 46.3416C133.595 46.3416 133.212 45.9425 133.212 45.4243V45.3213C132.587 45.9779 131.689 46.3416 130.598 46.3416C128.831 46.3416 127.637 45.3535 127.637 43.8825C127.637 42.3923 128.85 41.4589 130.772 41.4589H133.18V40.9052C133.18 39.7465 132.523 39.0867 131.361 39.0867C130.65 39.0867 130.009 39.3474 129.475 39.8817C129.25 40.0716 129.06 40.1585 128.85 40.1585C128.419 40.1585 128.055 39.7948 128.055 39.3957C128.055 39.135 128.178 38.8935 128.419 38.6521C129.147 37.8893 130.27 37.458 131.519 37.458C133.717 37.458 135.014 38.7745 135.014 41.0082ZM133.18 42.9298V42.7753H130.997C130.009 42.7753 129.491 43.139 129.491 43.8149C129.491 44.507 130.08 44.9415 130.981 44.9415C132.211 44.9383 133.18 44.0531 133.18 42.9298Z" fill="#AB4986"/>
    <path d="M137.007 41.8902C137.007 39.415 138.98 37.458 141.506 37.458C142.997 37.458 144.278 38.1693 144.934 39.1897C145.073 39.3957 145.108 39.5373 145.108 39.6757C145.108 40.1424 144.744 40.5061 144.294 40.5061C144.052 40.5061 143.843 40.4353 143.653 40.21C143.151 39.5856 142.459 39.1382 141.523 39.1382C140 39.1382 138.857 40.3162 138.857 41.8902C138.857 43.4995 139.984 44.6615 141.523 44.6615C142.456 44.6615 143.132 44.2108 143.653 43.6057C143.859 43.3643 144.052 43.3128 144.294 43.3128C144.744 43.3128 145.108 43.6765 145.108 44.1272C145.108 44.2816 145.073 44.4201 144.954 44.5939C144.242 45.6496 143.032 46.3416 141.51 46.3416C138.983 46.3384 137.007 44.3846 137.007 41.8902Z" fill="#AB4986"/>
    <path d="M155.395 41.8902C155.395 44.3653 153.403 46.3384 150.876 46.3384C148.365 46.3223 146.392 44.3653 146.392 41.8902C146.392 39.3957 148.365 37.458 150.876 37.458C153.403 37.458 155.395 39.415 155.395 41.8902ZM148.243 41.9063C148.243 43.4802 149.37 44.6582 150.876 44.6582C152.382 44.6582 153.525 43.4641 153.525 41.9063C153.525 40.313 152.382 39.135 150.892 39.1189C149.37 39.1382 148.243 40.3162 148.243 41.9063Z" fill="#AB4986"/>
    <path d="M159.258 45.4052V39.2253H157.095C156.644 39.2253 156.3 38.8777 156.3 38.4303C156.3 37.9829 156.647 37.6514 157.095 37.6514H163.223C163.69 37.6514 164.018 37.9797 164.018 38.4303C164.018 38.8809 163.69 39.2253 163.223 39.2253H161.06V45.4052C161.06 45.9427 160.68 46.3419 160.159 46.3419C159.653 46.3386 159.258 45.9427 159.258 45.4052Z" fill="#AB4986"/>
    <path d="M167.446 38.3914V40.1038H169.49C171.498 40.1038 172.902 41.2625 172.902 43.1165C172.902 44.9865 171.498 46.1453 169.49 46.1453H166.564C166.026 46.1453 165.627 45.7462 165.627 45.2119V38.3914C165.627 37.8539 166.007 37.458 166.545 37.458C167.066 37.458 167.446 37.8571 167.446 38.3914ZM167.446 41.6809V44.5713H169.351C170.391 44.5713 171.032 44.0338 171.032 43.1519C171.032 42.27 170.375 41.6809 169.351 41.6809H167.446ZM174.701 45.405V38.3947C174.701 37.8571 175.081 37.4612 175.618 37.4612C176.136 37.4612 176.519 37.8603 176.519 38.3947V45.405C176.519 45.9425 176.12 46.3416 175.602 46.3416C175.081 46.3384 174.701 45.9425 174.701 45.405Z" fill="#AB4986"/>
</svg>
