<svg xmlns="http://www.w3.org/2000/svg" display="none">
    <symbol id="icon-menu1" viewBox="0 0 29 28">
        <path d="M28.6214 0.36482C28.62 0.363508 28.6185 0.362359 28.6171 0.361047C28.3772 0.131523 28.0467 0 27.7093 0H27.7076C27.4159 0 27.1305 0.0967969 26.9039 0.272289C23.8199 2.65065 20.7245 5.10557 17.7033 7.5687C16.9687 8.16758 16.2334 8.77116 15.4989 9.37809L7.11162 1.28018C6.28342 0.480648 4.93594 0.480758 4.10779 1.28018L0.124425 5.12624C-0.0414751 5.28648 -0.0414751 5.54613 0.124425 5.70631C0.290326 5.86644 0.559312 5.86644 0.725156 5.70631L3.50706 3.02039L4.11499 3.60735L1.33314 6.29327C1.16724 6.45351 1.16724 6.71316 1.33314 6.87334C1.41606 6.95341 1.52481 6.99344 1.6335 6.99344C1.7422 6.99344 1.85095 6.95341 1.93387 6.87334L4.71577 4.18742L5.3237 4.77438L2.54179 7.46031C2.37589 7.62054 2.37589 7.8802 2.54179 8.04037C2.62471 8.12044 2.73346 8.16047 2.84216 8.16047C2.95085 8.16047 3.0596 8.12044 3.14252 8.04037L5.92443 5.3544L6.53235 5.94136L3.7505 8.62728C3.5846 8.78752 3.5846 9.04717 3.7505 9.20735C3.83343 9.28741 3.94218 9.32745 4.05087 9.32745C4.15956 9.32745 4.26831 9.28741 4.35123 9.20735L7.13308 6.52143L7.74101 7.10839L4.95916 9.79431C4.79326 9.95455 4.79326 10.2142 4.95916 10.3744C5.04208 10.4544 5.15083 10.4945 5.25952 10.4945C5.36822 10.4945 5.47697 10.4544 5.55989 10.3744L8.34174 7.68846L8.94966 8.27542L6.16781 10.9613C6.00191 11.1216 6.00191 11.3812 6.16781 11.5414C6.25074 11.6215 6.35949 11.6615 6.46818 11.6615C6.57687 11.6615 6.68562 11.6215 6.76854 11.5414L9.55039 8.85549L10.1583 9.44245L7.37647 12.1284C7.21057 12.2886 7.21057 12.5483 7.37647 12.7084C7.45939 12.7885 7.56814 12.8285 7.67683 12.8285C7.78553 12.8285 7.89428 12.7885 7.9772 12.7084L10.759 10.0225L11.367 10.6095L8.58518 13.2955C8.41928 13.4557 8.41928 13.7154 8.58518 13.8755C8.6681 13.9556 8.77685 13.9956 8.88555 13.9956C8.99424 13.9956 9.10299 13.9556 9.18591 13.8755L11.9678 11.1896L12.5972 11.7972C11.2928 12.8939 9.99514 13.9972 8.71211 15.1018C8.71155 15.1018 8.71155 15.1018 8.71155 15.1024C8.33041 15.4297 7.91467 15.8068 7.50453 16.1639C7.25328 16.3394 7.30114 16.6479 7.4258 16.7682C7.4258 16.7682 7.4258 16.7688 7.42637 16.7688C7.83531 17.2467 8.06131 17.8571 8.06131 18.4881C8.06131 19.2258 7.76735 19.916 7.23328 20.4311C7.2279 20.4363 5.95762 21.6629 5.95207 21.6682C4.10473 23.4934 0.851465 22.2479 0.849596 19.6629C0.850729 18.0935 2.16349 16.7973 3.82204 16.7962C4.7254 16.7967 5.56878 17.185 6.13576 17.8604C6.28953 18.0434 6.57189 18.0632 6.75087 17.9063C6.75314 17.9047 6.75484 17.903 6.7571 17.9009L6.76107 17.8975C6.96005 17.7248 6.946 17.4136 6.72369 17.2599C5.99755 16.4439 4.9412 15.9759 3.82487 15.9759H3.81921C1.6953 15.9759 -0.00244971 17.6457 4.24748e-05 19.6629C-0.00182667 21.1829 0.960215 22.5255 2.38342 23.0836C3.2285 23.414 4.15424 23.4368 4.99048 23.1779C4.19343 25.5719 6.04847 28 8.62676 28H8.63129C10.7381 28 12.4551 26.3533 12.4528 24.3108C12.4539 23.3401 12.0665 22.4241 11.3636 21.7306C11.364 21.7301 12.231 20.7785 12.231 20.7785C13.7614 19.1342 15.2752 17.4824 16.7707 15.8267L17.4108 16.4446L14.6289 19.1306C14.463 19.2908 14.463 19.5505 14.6289 19.7106C14.7119 19.7907 14.8206 19.8307 14.9293 19.8307C15.038 19.8307 15.1468 19.7907 15.2298 19.7106L18.0116 17.0247L18.6195 17.6117L15.8377 20.2976C15.6718 20.4578 15.6718 20.7175 15.8377 20.8777C15.9207 20.9577 16.0294 20.9978 16.1381 20.9978C16.2468 20.9978 16.3555 20.9577 16.4385 20.8777L19.2204 18.1917L19.8282 18.7786L17.0464 21.4646C16.8805 21.6248 16.8805 21.8845 17.0464 22.0446C17.1294 22.1247 17.2381 22.1647 17.3468 22.1647C17.4555 22.1647 17.5643 22.1247 17.6472 22.0446L20.4291 19.3587L21.037 19.9456L18.2551 22.6316C18.0892 22.7918 18.0892 23.0515 18.2551 23.2117C18.3381 23.2917 18.4468 23.3318 18.5555 23.3318C18.6642 23.3318 18.773 23.2917 18.8559 23.2117L21.6378 20.5257L22.2457 21.1127L19.4639 23.7986C19.298 23.9588 19.298 24.2185 19.4639 24.3786C19.5468 24.4587 19.6556 24.4987 19.7643 24.4987C19.873 24.4987 19.9817 24.4587 20.0647 24.3786L22.8466 21.6927L23.4544 22.2796L20.6726 24.9656C20.5067 25.1258 20.5067 25.3854 20.6726 25.5456C20.7556 25.6257 20.8643 25.6657 20.973 25.6657C21.0817 25.6657 21.1904 25.6257 21.2734 25.5456L24.0553 22.8597L24.6631 23.4466L21.8813 26.1325C21.7154 26.2928 21.7154 26.5524 21.8813 26.7126C21.9643 26.7927 22.073 26.8327 22.1817 26.8327C22.2904 26.8327 22.3992 26.7927 22.4821 26.7126L25.264 24.0267L25.8719 24.6136L23.09 27.2995C22.9241 27.4597 22.9241 27.7194 23.09 27.8796C23.173 27.9596 23.2817 27.9997 23.3904 27.9997C23.4991 27.9997 23.6079 27.9596 23.6908 27.8796L26.7727 24.904C26.7728 24.9039 26.7729 24.9037 26.7731 24.9036C26.7733 24.9035 26.7734 24.9033 26.7735 24.9032L27.6742 24.0335C28.0754 23.6462 28.2964 23.1312 28.2964 22.5834C28.2964 22.0356 28.0754 21.5206 27.6743 21.1332L19.2777 13.0268C22.5348 9.35829 25.6923 5.67864 28.7177 2.02289C29.1282 1.52682 29.0867 0.814023 28.6214 0.36482ZM4.10785 2.44032L4.70858 1.8603C5.20543 1.38059 6.01398 1.38059 6.51089 1.8603L14.8522 9.91408C14.3141 10.3604 13.7764 10.808 13.2398 11.2575L4.10785 2.44032ZM27.0733 21.7137C27.314 21.946 27.4466 22.255 27.4466 22.5837C27.4466 22.9124 27.314 23.2214 27.0733 23.4537L26.4726 24.0337C26.1919 23.7628 17.9326 15.7883 17.3299 15.2064C17.796 14.6884 18.2606 14.17 18.7229 13.6513L27.0733 21.7137ZM11.8354 19.9754C11.6295 19.8232 11.0805 19.5597 10.9892 18.8114C10.9637 18.6047 10.7831 18.4493 10.5684 18.4493C10.3118 18.4493 10.1162 18.6645 10.1453 18.9077C10.1459 18.9077 10.1459 18.9077 10.1459 18.9077C10.2269 19.5764 10.6029 20.1677 11.1773 20.5291C11.2073 20.5483 11.2373 20.5679 11.2685 20.5898C10.9738 20.9144 10.7306 21.1876 10.4517 21.485C10.3741 21.5681 10.3345 21.6802 10.3435 21.7918C10.352 21.9033 10.4092 22.0083 10.4993 22.0789C11.2122 22.6408 11.6025 23.4495 11.6032 24.3107C11.602 25.8914 10.2832 27.1785 8.62964 27.1796C6.99533 27.1776 5.65607 25.9058 5.65607 24.3107C5.65799 23.0126 6.50834 22.3174 6.57364 22.2282L7.8339 21.0114C8.5282 20.3411 8.91115 19.4341 8.91115 18.4881C8.91171 17.7968 8.70667 17.1291 8.31931 16.5582C8.6519 16.2646 8.94117 16.004 9.2771 15.7149L9.2788 15.7127C18.4894 7.78345 27.3257 0.967367 27.4918 0.875547C27.3779 0.985523 10.8035 16.9815 10.727 17.0647C10.5712 17.2342 10.5877 17.494 10.7627 17.6438C10.9386 17.7951 11.208 17.7774 11.3625 17.6094C11.4133 17.5535 27.9712 1.57243 28.0926 1.45523C28.0578 1.51424 21.2165 9.88088 11.8354 19.9754Z"/>
        <path d="M5.32566 18.2151C3.98571 16.9214 1.69941 17.8536 1.69952 19.6649C1.69952 20.2124 1.92059 20.7273 2.322 21.1148C2.7361 21.5146 3.27986 21.7143 3.82383 21.7143C4.36764 21.7143 4.91162 21.5144 5.32566 21.1148C6.15471 20.3145 6.15482 19.0154 5.32566 18.2151ZM4.72498 20.5347C4.22808 21.0142 3.41959 21.0143 2.92268 20.5347C2.12688 19.7664 2.68411 18.4354 3.82383 18.4354C4.96684 18.4354 5.51716 19.7699 4.72498 20.5347Z"/>
        <path d="M8.6298 22.2606C7.75635 22.2606 7.00603 22.7448 6.67162 23.5243C6.33557 24.3077 6.51048 25.1647 7.12803 25.7608C7.53822 26.1567 8.06662 26.3643 8.6123 26.3643C8.88797 26.3643 9.16811 26.3113 9.43942 26.2028C10.2501 25.8785 10.7538 25.1536 10.7538 24.3109C10.7537 23.1804 9.80096 22.2606 8.6298 22.2606ZM9.11419 25.445C8.73413 25.5969 8.17062 25.6074 7.72865 25.1807C7.28646 24.7538 7.29818 24.2074 7.45649 23.8382C7.61355 23.4721 8.00426 23.0808 8.62974 23.0808C9.33243 23.0808 9.9041 23.6326 9.9041 24.3109C9.9041 24.9141 9.49606 25.2922 9.11419 25.445Z"/>
    </symbol>

    <symbol id="icon-menu2" viewBox="0 0 28 28">
        <path d="M21.8011 22.6919C21.522 22.7317 21.3221 22.9818 21.3221 23.2617V27.4618C21.3221 28.1787 22.447 28.1798 22.447 27.4618V23.2443C22.447 22.9087 22.1488 22.6423 21.8011 22.6919Z"/>
        <path d="M20.3041 6.49054C20.356 5.47284 19.9951 4.50562 19.2878 3.76705C18.5807 3.02848 17.6259 2.62176 16.5994 2.62176H13.0231C11.9966 2.62176 11.0418 3.02848 10.3346 3.76705C9.3351 4.81072 9.29658 6.06288 9.36514 7.40678C7.78501 8.8665 6.88226 10.9176 6.88226 13.0642V27.4619C6.88226 28.1788 8.00718 28.1799 8.00718 27.4619V13.0642C8.00718 11.5663 8.52144 10.1228 9.44456 8.96377L9.68597 13.6947C9.69379 16.4937 11.9899 18.7682 14.8113 18.7682C17.6326 18.7682 19.9287 16.4937 19.9365 13.6947L20.1592 9.32961C20.9152 10.4205 21.3221 11.7104 21.3221 13.0642V18.6772C21.3221 19.3942 22.447 19.3952 22.447 18.6772V13.0642C22.447 11.035 21.6653 9.12826 20.2435 7.67815L20.3041 6.49054ZM19.1805 6.43403L18.8123 13.6519C18.8118 13.6613 18.8116 13.6707 18.8116 13.6802C18.8116 15.87 17.017 17.6515 14.8111 17.6515C12.6053 17.6515 10.8108 15.87 10.8108 13.6802C10.8108 13.6707 10.8106 13.6613 10.8101 13.6519L10.4418 6.43403C10.4044 5.70027 10.6749 5.00414 11.2022 4.48328C11.6949 3.9966 12.3716 3.73852 13.0665 3.73852H16.5557C17.2507 3.73852 17.9274 3.9966 18.42 4.48328C18.9474 5.00414 19.2179 5.70027 19.1805 6.43403Z"/>
        <path d="M27.7152 5.52226L26.2461 4.72462L25.4427 3.26619C25.2358 2.89068 24.6643 2.88766 24.4557 3.26619L23.6522 4.72462L22.1831 5.52226C21.8049 5.72763 21.8018 6.295 22.1831 6.50205L23.6522 7.29969L24.4557 8.75806C24.6626 9.13357 25.2341 9.13659 25.4427 8.75806L26.2461 7.29969L27.7152 6.50205C28.0934 6.29667 28.0965 5.72925 27.7152 5.52226ZM26.2731 6.01212L25.4173 6.47681L24.9492 7.32644L24.4811 6.47681L23.6253 6.01207L24.4811 5.54739L24.9492 4.69776L25.4174 5.54739L26.2731 6.01212Z"/>
        <path d="M2.18258 3.30024L3.50949 4.02071L4.23518 5.33798C4.44206 5.71349 5.01358 5.71651 5.22214 5.33798L5.94788 4.02071L7.27479 3.30024C7.65305 3.09487 7.65609 2.5275 7.27479 2.32045L5.94788 1.60003L5.22214 0.282764C5.01526 -0.0927455 4.44374 -0.0957607 4.23518 0.282764L3.50949 1.60003L2.18258 2.32051C1.80432 2.52582 1.80129 3.09325 2.18258 3.30024ZM3.62468 2.81037L4.33839 2.42286L4.72874 1.71433L5.11909 2.42286L5.8328 2.81032L5.11909 3.19783L4.72874 3.90636L4.33845 3.19783L3.62468 2.81037Z"/>
        <path d="M5.66227 15.786L4.24317 15.0155L3.46703 13.6067C3.26015 13.2312 2.68864 13.2281 2.48007 13.6067L1.70393 15.0155L0.284833 15.786C-0.0934241 15.9914 -0.0964614 16.5588 0.284833 16.7658L1.70393 17.5363L2.48007 18.9451C2.68689 19.3205 3.25852 19.3236 3.46703 18.9451L4.24317 17.5363L5.66227 16.7658C6.04047 16.5605 6.04356 15.9931 5.66227 15.786ZM3.41427 16.7135L2.97347 17.5135L2.53278 16.7135L1.72688 16.276L2.53283 15.8383L2.97352 15.0383L3.41427 15.8384L4.22017 16.276L3.41427 16.7135Z"/>
        <path d="M21.3651 21.1609C21.5544 21.6116 22.2201 21.6136 22.4066 21.1542C22.4653 21.0095 22.4599 20.8437 22.3907 20.7038C22.2415 20.4018 21.8769 20.3113 21.6074 20.4618C21.3635 20.598 21.2576 20.9044 21.3651 21.1609Z"/>
        <path d="M16.3505 22.8261C17.0727 22.8261 17.0738 21.7094 16.3505 21.7094H13.217C12.4948 21.7094 12.4937 22.8261 13.217 22.8261H16.3505Z"/>
        <path d="M17.2301 23.9887H12.3924C11.6702 23.9887 11.6691 25.1054 12.3924 25.1054H17.2301C17.9523 25.1054 17.9533 23.9887 17.2301 23.9887Z"/>
    </symbol>

    <symbol id="icon-menu3" viewBox="0 0 24 26">
        <path d="M4.16204 23.1355C5.11175 24.3482 6.0332 25.3739 7.49734 25.9632C7.65563 26.0312 7.84218 26.0029 7.97785 25.8952C8.11353 25.7875 8.18136 25.6175 8.15875 25.4419C8.13614 25.2662 8.01742 25.1245 7.85914 25.0622C6.81898 24.5918 5.92014 23.8665 5.24743 22.9428C6.60981 22.5121 7.71781 21.5204 8.30573 20.2171C8.68449 19.299 8.48663 18.2393 7.7913 17.5253C6.18018 15.9386 3.22363 17.361 2.77138 19.3387C2.60179 20.2964 2.82792 21.2768 3.39887 22.0644C2.31914 21.6678 1.47118 20.8121 1.08677 19.7297C0.476242 17.684 2.56222 15.7006 4.06028 14.2216C4.88563 14.6183 5.87492 14.4539 6.52502 13.8022L11.675 8.63977C11.9124 8.78711 12.1329 8.96278 12.3194 9.16678C12.636 9.45012 12.8847 9.80147 13.06 10.1925C13.2352 10.5665 13.5574 10.8498 13.9531 10.9688C14.3489 11.0878 14.7785 11.0255 15.1233 10.7988C17.4411 9.25179 19.4027 7.22307 20.8612 4.84867C21.0477 4.503 21.0873 4.08932 20.9629 3.71531C20.8386 3.3413 20.5616 3.02963 20.2054 2.86529C19.7928 2.66695 19.4366 2.37228 19.1709 1.99827C18.5717 0.927239 17.5089 0.201887 16.2992 0.0375496C15.0894 -0.132455 13.8683 0.281222 13.0034 1.14824L3.44975 10.7252C2.67528 11.5072 2.60745 12.7482 3.29147 13.6096C1.48814 15.3833 -0.586534 17.5367 0.154017 20.0017C0.634527 21.5884 2.37002 23.1865 4.16204 23.1355ZM3.70979 19.554C4.00941 18.2507 6.08973 17.2023 7.11294 18.211C7.52561 18.653 7.64432 19.299 7.40689 19.8544C6.86985 21.0048 5.83534 21.8378 4.59732 22.1098C4.01506 21.3334 3.51194 20.4381 3.70979 19.554ZM20.0584 4.04399C20.0924 4.15732 20.0811 4.27632 20.0245 4.37833C18.6395 6.61672 16.791 8.52643 14.6089 9.98847C14.4902 10.0621 14.3432 10.0848 14.2075 10.0451C13.857 9.93747 14.0097 9.71646 13.4331 8.97978C15.4342 7.87475 18.0686 5.20002 18.9787 3.2053C19.7136 3.81731 19.951 3.68698 20.0584 4.04399ZM4.13943 11.4108L13.6931 1.83393C14.3262 1.19925 15.2138 0.887571 16.107 0.989574C17.0001 1.09158 17.7972 1.59592 18.2664 2.36094C18.2155 2.53661 18.1534 2.70662 18.0686 2.86529C17.215 4.68434 14.5919 7.33074 12.749 8.24309C12.2403 7.77275 11.5506 7.39307 11.0588 7.88608L5.83534 13.1222C5.36614 13.5926 4.60298 13.5926 4.12812 13.1222C3.67022 12.6519 3.67022 11.8869 4.13943 11.4108Z"/>
        <path d="M22.8511 6.40704C23.9364 9.77313 19.9002 13.8249 16.5422 12.7312C16.2879 12.6462 16.0165 12.7879 15.9374 13.0429C15.8582 13.2979 15.9939 13.5699 16.2483 13.6492C20.3524 14.9809 25.101 10.2208 23.7725 6.1067C23.7216 5.94237 23.5803 5.8177 23.4164 5.7837C23.2524 5.74969 23.0715 5.80636 22.9585 5.93103C22.8398 6.06137 22.8002 6.24271 22.8511 6.40704Z"/>
        <path d="M21.7148 7.18908C21.7148 7.0134 21.6243 6.85473 21.4717 6.76406C21.3191 6.67906 21.1325 6.67906 20.9855 6.76406C20.8386 6.84907 20.7425 7.0134 20.7481 7.18908C20.7538 8.84378 18.9844 10.6232 17.328 10.6175C17.0623 10.6232 16.8532 10.8328 16.8532 11.0992C16.8532 11.3655 17.0623 11.5809 17.328 11.5865C19.5158 11.5979 21.7204 9.3878 21.7148 7.18908Z"/>
    </symbol>

    <symbol id="icon-menu4" viewBox="0 0 27 28">
        <path d="M4.26585 19.3491L3.10392 16.6551C2.74234 15.8414 1.78539 15.4731 0.96652 15.8323C0.147647 16.1916 -0.223062 17.1425 0.138518 17.9561C2.27874 22.6344 2.383 23.1411 3.33217 24.0833L7.13637 27.8633C7.22443 27.9508 7.34387 28 7.46842 28H12.5599C12.8193 28 13.0296 27.7911 13.0296 27.5333C13.0928 26.5871 13.0406 25.6368 12.8741 24.7031C13.29 24.7422 13.7086 24.7422 14.1244 24.7031C13.9219 25.557 13.9689 26.0816 13.9689 27.5329C13.9689 27.7906 14.1792 27.9995 14.4386 27.9995H19.532C19.6565 27.9995 19.776 27.9503 19.864 27.8628L23.6682 24.0829C24.616 23.1407 24.6916 22.6964 26.8619 17.9556C27.0958 17.4293 27.0293 16.819 26.6875 16.3545C26.3457 15.8901 25.7805 15.6421 25.2048 15.704C24.6291 15.7659 24.1304 16.1283 23.8965 16.6546L22.7327 19.3491C22.1875 18.9743 21.5099 18.8419 20.8625 18.9837C21.0798 18.4541 21.2643 17.9117 21.4148 17.3597C22.3471 17.173 24.6057 16.3597 24.6057 12.8331C24.6057 11.638 24.3962 10.1652 23.2 10.0028C24.8908 7.40262 25.5665 4.27786 25.0997 1.21705L24.9119 0.365399C24.8639 0.151075 24.6721 -0.00105403 24.4511 5.50002e-06H2.54738C2.32729 4.30287e-05 2.13675 0.15193 2.08899 0.365399L1.89174 1.25205C1.43335 4.30405 2.11188 7.41736 3.79995 10.0075C2.61548 10.183 2.41024 11.6515 2.41024 12.835C2.41024 16.3629 4.67069 17.1749 5.60389 17.3616C5.7553 17.9152 5.94053 18.459 6.15855 18.9902C5.50495 18.8394 4.81764 18.9697 4.26585 19.3491ZM12.0903 27.0662H7.66098L3.99767 23.4235C3.23073 22.6633 3.23166 22.4617 0.99376 17.5697C0.895434 17.3484 0.923409 17.0918 1.06715 16.8965C1.21089 16.7012 1.44855 16.597 1.69061 16.623C1.93268 16.6491 2.14237 16.8015 2.24069 17.0228C4.14326 21.4346 3.40356 20.3599 7.1345 24.0693C7.25242 24.1906 7.42703 24.2393 7.59124 24.1966C7.75544 24.1539 7.88368 24.0265 7.92666 23.8633C7.96964 23.7001 7.92068 23.5266 7.79859 23.4095C5.22582 20.8536 5.10418 20.7827 4.71202 20.1858C5.23794 19.7519 5.99996 19.7508 6.52723 20.183C7.50544 21.0742 8.63553 21.7853 9.8646 22.283C10.9631 22.6456 12.0903 24.06 12.0903 26.0396V27.0662ZM12.5398 23.7179C12.1035 22.6513 11.2429 21.8113 10.1619 21.3968C9.23897 21.0258 8.38252 20.5089 7.62575 19.8661C6.01202 17.0251 5.80443 13.6012 5.80209 10.3388C6.79728 8.59633 9.40763 4.577 13.4993 2.1247C17.5998 4.59519 20.2153 8.62059 21.2138 10.3678C21.2063 13.681 21.0072 16.9477 19.4141 19.8349C18.6461 20.491 17.7757 21.0185 16.8371 21.3968C15.7552 21.8121 14.8941 22.6534 14.4578 23.7212C13.8221 23.8175 13.1752 23.8164 12.5398 23.7179ZM22.2865 20.1835C21.8962 20.778 21.783 20.8405 19.1999 23.4071C19.0219 23.5903 19.0245 23.8813 19.2057 24.0613C19.3868 24.2413 19.6797 24.2439 19.864 24.067C23.5593 20.3958 22.8543 21.4369 24.7578 17.0228C24.8561 16.8015 25.0658 16.6491 25.3079 16.623C25.55 16.597 25.7876 16.7012 25.9314 16.8965C26.0751 17.0918 26.1031 17.3484 26.0048 17.5697C23.8002 22.3889 23.7866 22.6446 23.0037 23.4235L19.3375 27.0662H14.9082V26.0396C14.8922 25.0265 15.2216 24.0379 15.8428 23.2345C16.9442 21.8662 17.2955 22.8392 20.4713 20.183C20.998 19.7501 21.76 19.7503 22.2865 20.1835ZM23.6663 12.8331C23.6663 15.1827 22.5199 16.0237 21.6675 16.3251C21.9848 14.6636 22.1433 12.9759 22.1409 11.2847C22.5753 10.9782 22.9605 10.8503 23.1741 10.953C23.2892 11.008 23.6663 11.3076 23.6663 12.8331ZM24.0754 0.933323C24.6974 4.05238 24.0011 7.28836 22.1498 9.88197C22.1052 6.3965 21.1786 4.0086 19.3159 2.59276C19.1099 2.43619 18.8151 2.47526 18.6575 2.68003C18.4999 2.88479 18.5392 3.17771 18.7453 3.33428C20.1031 4.36607 20.8813 6.05444 21.1241 8.4442C19.2408 5.60224 16.3322 2.57503 13.2973 0.933323H24.0754ZM2.92404 0.933323H9.32966C8.28178 1.62298 7.34715 2.46901 6.5587 3.44161C6.39659 3.6429 6.42939 3.93666 6.63197 4.09774C6.83454 4.25882 7.13019 4.22622 7.2923 4.02494C8.34208 2.73692 9.66449 1.69444 11.1655 0.971589C11.6426 1.15791 12.1096 1.36881 12.5646 1.60345C8.62236 4.12527 6.10454 7.89261 4.92289 9.9865C3.01362 7.37848 2.28888 4.09599 2.92404 0.933323ZM3.34955 12.8331C3.34955 11.3057 3.72527 11.0062 3.84269 10.9511C4.05215 10.8508 4.44525 10.9805 4.87593 11.2829C4.87356 12.9749 5.03223 14.6633 5.34981 16.3256C4.49738 16.026 3.34955 15.1855 3.34955 12.8331Z"/>
        <path d="M8.07334 10.1428C8.56308 9.89822 9.13088 9.85824 9.65044 10.0318L11.4722 10.6351C11.6316 10.6878 11.8072 10.652 11.9328 10.5412C12.0585 10.4304 12.115 10.2614 12.0812 10.0979C12.0475 9.93436 11.9285 9.80118 11.7691 9.7485L9.94726 9.14651C9.19154 8.89427 8.36571 8.95257 7.65347 9.30844C7.50201 9.38218 7.40198 9.53096 7.3914 9.69821C7.38082 9.86547 7.46132 10.0255 7.60229 10.1175C7.74326 10.2095 7.92306 10.2194 8.07334 10.1433V10.1428Z"/>
        <path d="M15.3779 10.659C15.4873 10.659 15.3779 10.6846 17.3504 10.0318C17.8699 9.85778 18.4379 9.89778 18.9275 10.1428C19.0778 10.2189 19.2576 10.2091 19.3986 10.1171C19.5396 10.0251 19.6201 9.86503 19.6095 9.69777C19.5989 9.53051 19.4989 9.38173 19.3474 9.30799C18.635 8.95214 17.809 8.89385 17.0531 9.14606L15.2318 9.74945C15.0135 9.82151 14.8798 10.0401 14.9161 10.2658C14.9523 10.4916 15.1478 10.658 15.3779 10.659Z"/>
        <path d="M11.5948 12.45C11.5115 12.2064 11.2456 12.0758 11.0002 12.1579C10.9838 12.163 9.38226 12.6819 8.14519 11.7598C7.95917 11.622 7.69978 11.6399 7.53464 11.8018C7.36973 11.9713 7.15676 12.0869 6.92409 12.1331C6.6647 12.1331 6.45443 12.3421 6.45443 12.5998C6.45443 12.8575 6.6647 13.0665 6.92409 13.0665C7.27479 13.0478 7.61173 12.9247 7.8911 12.7132C7.96202 12.7552 8.032 12.7925 8.10433 12.8285C8.04135 12.9234 7.95933 13.0044 7.8634 13.0665C7.60401 13.0665 7.39374 13.2754 7.39374 13.5331C7.39374 14.1066 8.26119 14.3264 9.02485 13.1509C9.78154 13.3045 10.5649 13.2668 11.3031 13.0413C11.5476 12.9575 11.6779 12.6933 11.5948 12.45Z"/>
        <path d="M18.8533 11.7598C17.6224 12.6768 16.0316 12.1691 15.9988 12.1579C15.7533 12.0746 15.4863 12.2049 15.4025 12.4488C15.3188 12.6928 15.4499 12.958 15.6954 13.0412C16.4335 13.2672 17.217 13.3049 17.9737 13.1509C18.2122 13.5191 18.6213 13.9998 19.1351 13.9998C19.3967 14.0011 19.6107 13.793 19.6151 13.5331C19.6178 13.4102 19.5705 13.2915 19.484 13.2037C19.3975 13.1159 19.279 13.0664 19.1553 13.0664C19.0512 13.0071 18.9625 12.9245 18.8961 12.8252C18.9665 12.7892 19.037 12.7528 19.1074 12.7109C19.3865 12.9232 19.7235 13.0471 20.0744 13.0664C20.3338 13.0664 20.5441 12.8575 20.5441 12.5998C20.5441 12.3421 20.3338 12.1331 20.0744 12.1331C19.8431 12.0868 19.6313 11.9717 19.4672 11.8032C19.3019 11.639 19.0403 11.6205 18.8533 11.7598Z"/>
        <path d="M11.8296 16.2547C12.8401 16.9264 14.1584 16.9264 15.1689 16.2547C15.3085 16.1621 15.3878 16.0026 15.377 15.8362C15.3661 15.6698 15.2667 15.5218 15.1163 15.448C14.9658 15.3741 14.7872 15.3856 14.6476 15.4781C13.9525 15.9397 13.046 15.9397 12.351 15.4781C12.1351 15.3351 11.8435 15.393 11.6995 15.6074C11.5556 15.8218 11.6138 16.1116 11.8296 16.2547Z"/>
        <path d="M16.3172 19.0397C16.3158 18.8833 16.2494 18.7345 16.1338 18.6285C16.0182 18.5225 15.8636 18.4686 15.7066 18.4797C15.3173 18.4797 14.1648 17.733 13.4993 17.733C12.8248 17.733 11.6883 18.4797 11.2942 18.4797C11.1369 18.4681 10.9818 18.5217 10.8657 18.6278C10.7496 18.7338 10.6828 18.883 10.6813 19.0397C10.6813 19.6981 12.0081 20.533 13.4993 20.533C14.9904 20.533 16.3172 19.6977 16.3172 19.0397ZM13.4993 18.6663C14.0047 18.8135 14.4959 19.0052 14.9669 19.2394C14.0482 19.7196 12.9504 19.7196 12.0316 19.2394C12.5024 19.0048 12.9936 18.813 13.4993 18.6663Z"/>
        <path d="M13.9689 21.4663H13.0296C12.7702 21.4663 12.5599 21.6752 12.5599 21.933C12.5599 22.1907 12.7702 22.3996 13.0296 22.3996H13.9689C14.2283 22.3996 14.4386 22.1907 14.4386 21.933C14.4386 21.6752 14.2283 21.4663 13.9689 21.4663Z"/>
        <path d="M5.51513 5.59991C5.77451 5.59991 5.98478 5.39098 5.98478 5.13326C5.98478 4.87553 5.77451 4.6666 5.51513 4.6666C5.25575 4.6666 5.04547 4.87553 5.04547 5.13326C5.04547 5.39098 5.25575 5.59991 5.51513 5.59991Z"/>
    </symbol>

    <symbol id="icon-menu5" viewBox="0 0 23 28">
        <path d="M2.712 9.17385C2.2655 10.4313 1.0245 13.4728 1.043 13.4256C-0.5685 17.5752 -0.0199999 22.9799 2.934 27.5491C3.11717 27.829 3.44313 27.9998 3.7945 28H19.207C19.5583 27.9996 19.8842 27.8289 20.0675 27.5491C23.1175 22.8324 23.547 17.3297 21.8975 13.259C21.315 11.8302 20.7555 10.4869 20.2895 9.17339C22.081 8.59693 23 7.86877 23 7.00152C23 6.02784 21.811 5.20493 19.558 4.61167C19.6595 3.47651 19.99 2.36951 20.532 1.34896C20.6859 1.05974 20.6688 0.716778 20.4867 0.442174C20.3047 0.16757 19.9835 0.000332749 19.6375 0H3.364C3.01796 0.000171374 2.6966 0.167343 2.51439 0.441976C2.33218 0.716608 2.31501 1.05966 2.469 1.34896C3.01127 2.36925 3.34175 3.47615 3.443 4.6112C1.189 5.20493 0 6.02737 0 7.00152C0 7.86877 0.919 8.5974 2.712 9.17385ZM21.2455 14.3676C21.4178 14.9018 21.5531 15.4457 21.6505 15.9961C20.643 16.5338 19.3505 17.1318 17.797 17.7773C15.3718 18.7512 13.2177 20.2307 11.5 22.1024C9.78241 20.2308 7.62853 18.7513 5.2035 17.7773C3.65 17.1304 2.358 16.5343 1.35 15.9966C1.44762 15.4464 1.58289 14.9026 1.755 14.3685C3.2685 15.4327 6.238 16.8036 11.5 16.8036C16.762 16.8036 19.733 15.4323 21.2455 14.3676ZM3.79 27.0665C1.81691 24.0468 0.916055 20.5224 1.216 16.9964C2.1935 17.4991 3.3915 18.0466 4.797 18.6301C7.22073 19.5947 9.35155 21.1036 11 23.0224V27.0665H3.79ZM19.207 27.0665H12V23.0224C13.6486 21.1036 15.7796 19.595 18.2035 18.6306C19.609 18.0466 20.807 17.4987 21.785 16.9969C22.0847 20.5232 21.1824 24.0477 19.207 27.0665ZM22 7.00152C22 7.30678 21.4545 7.80856 19.986 8.28513C19.6987 7.40698 19.543 6.4959 19.5235 5.57787C21.223 6.05678 22 6.62203 22 7.00152ZM3.362 0.933536H19.639C18.392 3.30742 18.1738 6.03885 19.03 8.55912C18.1578 8.76836 17.2728 8.92844 16.38 9.03849L17.836 7.81509C18.0347 7.64131 18.0479 7.35103 17.8657 7.16212C17.6835 6.97322 17.3729 6.95515 17.167 7.12148L14.667 9.22193C14.5413 9.33504 14.4826 9.49831 14.5098 9.65933C14.5369 9.82035 14.6466 9.95885 14.8035 10.0304C17.4 12.2144 17.239 12.136 17.5 12.136C17.707 12.1359 17.8925 12.0168 17.9667 11.8365C18.0408 11.6561 17.9883 11.4517 17.8345 11.3224L16.2545 9.9949C17.2928 9.87661 18.3215 9.69433 19.334 9.44925C19.8025 10.7711 20.3395 12.0631 20.8985 13.4331C16.627 16.7005 6.373 16.7005 2.1025 13.4331C2.6565 12.0739 3.1975 10.7749 3.667 9.44925C4.67923 9.6939 5.70762 9.87602 6.7455 9.99443L5.1655 11.3219C5.01135 11.4512 4.95855 11.6558 5.03276 11.8364C5.10697 12.017 5.2928 12.1361 5.5 12.136C5.7665 12.136 5.661 12.1616 8.3345 9.91555C8.43976 9.82703 8.49985 9.70099 8.49985 9.56874C8.49985 9.43649 8.43976 9.31045 8.3345 9.22193L5.8345 7.12148C5.62859 6.95515 5.31797 6.97322 5.13577 7.16212C4.95357 7.35103 4.96678 7.64131 5.1655 7.81509L6.6215 9.03849C5.72859 8.92889 4.84363 8.7688 3.9715 8.55912C4.82849 6.0389 4.61015 3.30712 3.362 0.933536ZM3.478 5.57881C3.45833 6.49686 3.30251 7.40793 3.015 8.28606C1.546 7.80903 1 7.30678 1 7.00152C1 6.62203 1.7775 6.05678 3.478 5.57647V5.57881Z"/>
        <path d="M11.5 11.6692C12.3943 11.599 13.0625 10.8713 13 10.0355C13.0625 9.19971 12.3943 8.47202 11.5 8.40182C10.6057 8.47202 9.93753 9.19971 10 10.0355C9.93753 10.8713 10.6057 11.599 11.5 11.6692ZM11.5 9.33536C11.7665 9.33536 12 9.6621 12 10.0355C12 10.4089 11.7665 10.7357 11.5 10.7357C11.2335 10.7357 11 10.4089 11 10.0355C11 9.6621 11.2335 9.33536 11.5 9.33536Z"/>
    </symbol>

    <symbol id="vk" viewBox="0 0 26 16">
        <path fill-rule="evenodd" clip-rule="evenodd"
              d="M21.9942 9.98475C22.842 10.8124 23.7367 11.5911 24.497 12.5022C24.8329 12.9071 25.1508 13.3249 25.3941 13.7948C25.7388 14.4627 25.4266 15.1977 24.8276 15.2376L21.1046 15.2359C20.1444 15.3156 19.3784 14.929 18.7343 14.2725C18.2188 13.7475 17.7415 13.1887 17.2459 12.6459C17.0427 12.4241 16.83 12.2154 16.5759 12.0504C16.0677 11.7205 15.6265 11.8215 15.3361 12.3516C15.0403 12.8907 14.9732 13.4877 14.9441 14.0885C14.9042 14.9652 14.6392 15.1957 13.7586 15.2358C11.8766 15.3246 10.0905 15.0399 8.43128 14.0905C6.96844 13.2535 5.83407 12.072 4.84673 10.7343C2.92435 8.12963 1.45219 5.26751 0.129064 2.3252C-0.16876 1.6623 0.0490457 1.30646 0.780466 1.29386C1.99502 1.27027 3.20941 1.27195 4.42539 1.29218C4.91902 1.2994 5.24581 1.58253 5.43641 2.04887C6.09352 3.66461 6.89757 5.20185 7.90683 6.62674C8.17561 7.00609 8.44967 7.38544 8.83994 7.65245C9.27169 7.94809 9.60041 7.85011 9.80352 7.36916C9.93241 7.06419 9.98883 6.73572 10.0179 6.4091C10.1141 5.28539 10.1268 4.16362 9.95802 3.04386C9.8544 2.34502 9.46078 1.89262 8.76345 1.76037C8.4076 1.69295 8.46058 1.56053 8.63288 1.35742C8.93213 1.00712 9.21358 0.789062 9.77464 0.789062H12.5161C13.4912 0.789062 14.7207 0.826914 14.8689 1.79065C14.8736 1.8209 14.8781 1.85197 14.8824 1.88388L14.886 6.55763C14.8788 6.81566 15.0149 7.58133 15.4796 7.75212C15.8516 7.8737 16.0968 7.57613 16.32 7.34027C17.3274 6.27106 18.0464 5.00747 18.6887 3.69904C18.9738 3.12371 19.2189 2.52622 19.4564 1.92922C19.6324 1.48622 19.9086 1.26825 20.4076 1.27791L24.4571 1.28152C24.5772 1.28152 24.6987 1.28328 24.815 1.30318C25.4974 1.41947 25.6843 1.71301 25.4736 2.37936C25.1415 3.42481 24.4954 4.29603 23.8636 5.17128C23.1883 6.10573 22.466 7.00819 21.7963 7.94818C21.181 8.80655 21.2299 9.23923 21.9942 9.98475Z"/>
    </symbol>

    <symbol id="instagram" viewBox="0 0 20 20">
        <path d="M14.3772 0.0664062H5.8079C2.89782 0.0664062 0.530273 2.43406 0.530273 5.34415V13.9134C0.530273 16.8236 2.89782 19.1912 5.8079 19.1912H14.3772C17.2875 19.1912 19.655 16.8235 19.655 13.9134V5.34415C19.6551 2.43406 17.2875 0.0664062 14.3772 0.0664062ZM17.9582 13.9134C17.9583 13.9134 17.9583 13.9134 17.9583 13.9135C17.9583 15.888 16.3518 17.4943 14.3773 17.4943H5.8079C3.83346 17.4944 2.22711 15.888 2.22711 13.9134V5.34415C2.22711 3.3697 3.83346 1.76325 5.8079 1.76325H14.3772C16.3517 1.76325 17.9582 3.3697 17.9582 5.34415V13.9134C17.9582 13.9134 17.9582 13.9134 17.9582 13.9134Z"/>
        <path d="M10.0926 4.70117C7.37526 4.70117 5.16461 6.91182 5.16461 9.62914C5.16461 12.3463 7.37526 14.5569 10.0926 14.5569C12.8099 14.5569 15.0205 12.3463 15.0205 9.62914C15.0205 6.91182 12.8099 4.70117 10.0926 4.70117ZM10.0926 12.8599C8.31101 12.8599 6.86145 11.4106 6.86145 9.62902C6.86145 7.84734 8.31089 6.3979 10.0926 6.3979C11.8743 6.3979 13.3237 7.84734 13.3237 9.62902C13.3237 11.4106 11.8741 12.8599 10.0926 12.8599Z"/>
        <path d="M15.2273 3.26172C14.9003 3.26172 14.5792 3.39407 14.3483 3.62597C14.1163 3.85674 13.9829 4.17801 13.9829 4.50607C13.9829 4.83311 14.1164 5.15426 14.3483 5.38616C14.5791 5.61693 14.9003 5.75042 15.2273 5.75042C15.5553 5.75042 15.8755 5.61693 16.1074 5.38616C16.3393 5.15426 16.4716 4.83299 16.4716 4.50607C16.4716 4.17801 16.3393 3.85674 16.1074 3.62597C15.8766 3.39407 15.5553 3.26172 15.2273 3.26172Z"/>
    </symbol>

    <symbol id="fb" viewBox="0 0 10 20">
        <path d="M9.52254 0.999879L7.1632 0.996094C4.51256 0.996094 2.7996 2.75354 2.7996 5.47364C2.7996 6.61381 1.87531 7.53809 0.735146 7.53809H0.427381C0.222393 7.53809 0.0563965 7.70428 0.0563965 7.90927V10.9004C0.0563965 11.1054 0.222582 11.2714 0.427381 11.2714C1.73752 11.2714 2.7996 12.3335 2.7996 13.6436V18.819C2.7996 19.024 2.96559 19.19 3.17058 19.19H6.26565C6.47063 19.19 6.63663 19.0238 6.63663 18.819V14.0451C6.63663 12.5132 7.87845 11.2714 9.4103 11.2714C9.61529 11.2714 9.78129 11.1054 9.78129 10.9004L9.78242 7.90927C9.78242 7.81084 9.74324 7.71658 9.67378 7.64693C9.60431 7.57727 9.50967 7.53809 9.41125 7.53809H8.38669C7.42016 7.53809 6.63663 6.75457 6.63663 5.78803C6.63663 4.94688 6.83708 4.51987 7.9328 4.51987L9.52217 4.51931C9.72696 4.51931 9.89296 4.35312 9.89296 4.14832V1.37086C9.89296 1.16625 9.72715 1.00026 9.52254 0.999879Z"/>
    </symbol>

    <symbol id="ok" viewBox="0 0 11 20">
        <path d="M4.41015 14.0617C4.50848 13.9626 4.44272 13.7916 4.30425 13.7735C3.02812 13.6068 1.87228 13.2501 0.871117 12.467C0.736019 12.3611 0.596539 12.259 0.473255 12.1406C-0.00330403 11.6829 -0.051322 11.1587 0.325771 10.6185C0.648368 10.1563 1.1899 10.0326 1.75278 10.298C1.86177 10.3495 1.96562 10.4137 2.06509 10.4827C4.09422 11.8769 6.88174 11.9154 8.9185 10.5454C9.12029 10.3906 9.33599 10.2645 9.58599 10.2001C10.0721 10.0753 10.5254 10.2538 10.7862 10.6791C11.0843 11.1648 11.0805 11.6389 10.7133 12.016C10.15 12.5941 9.47261 13.0124 8.71995 13.3043C8.11741 13.5379 7.46624 13.6733 6.81247 13.7653C6.66437 13.7861 6.59581 13.9675 6.70129 14.0735C7.74892 15.1261 8.80112 16.1743 9.84532 17.2301C10.2011 17.5899 10.2754 18.036 10.0795 18.4544C9.86533 18.9117 9.38591 19.2126 8.91583 19.1804C8.61801 19.1598 8.38573 19.0116 8.17937 18.8037C7.38879 18.0081 6.58334 17.2273 5.80877 16.4167C5.58335 16.181 5.47493 16.2256 5.276 16.4302C4.48065 17.249 3.67235 18.0552 2.85929 18.8568C2.4942 19.2168 2.05975 19.2816 1.63636 19.076C1.18628 18.8578 0.89989 18.3984 0.921993 17.9367C0.937237 17.6244 1.09082 17.3858 1.30518 17.1718C2.34195 16.1366 3.37586 15.0987 4.41015 14.0617Z"/>
        <path d="M5.50111 10.207C2.98493 10.1985 0.921685 8.11253 0.936357 5.59235C0.950839 3.04435 3.01542 0.991015 5.55637 0.998065C8.10246 1.00492 10.1461 3.0878 10.1333 5.66228C10.1204 8.17732 8.04282 10.2158 5.50111 10.207ZM7.78786 5.59845C7.78348 4.34712 6.78692 3.35094 5.53807 3.3498C4.27875 3.34847 3.27323 4.36275 3.28295 5.62551C3.29228 6.87207 4.29742 7.8612 5.5497 7.85662C6.79816 7.85224 7.79206 6.84958 7.78786 5.59845Z"/>
    </symbol>

</svg>